<?xml version="1.0" encoding="iso-8859-1"?>
<!-- Generator: Adobe Illustrator 19.0.0, SVG Export Plug-In . SVG Version: 6.00 Build 0)  -->
<svg version="1.1" id="Capa_1" xmlns="http://www.w3.org/2000/svg" xmlns:xlink="http://www.w3.org/1999/xlink" x="0px" y="0px"
	 viewBox="0 0 511.999 511.999" style="enable-background:new 0 0 511.999 511.999;" xml:space="preserve">
<circle style="fill:#D4D3D3;" cx="68.065" cy="102.676" r="64.601"/>
<path style="fill:#F09A99;" d="M68.065,135.821c-18.278,0-33.149-14.871-33.149-33.148c0-18.279,14.871-33.149,33.149-33.149
	s33.148,14.871,33.148,33.149C101.214,120.951,86.343,135.821,68.065,135.821z"/>
<circle style="fill:#D4D3D3;" cx="443.936" cy="102.676" r="64.601"/>
<path style="fill:#F09A99;" d="M443.936,135.821c18.279,0,33.148-14.871,33.148-33.148c0-18.279-14.871-33.149-33.148-33.149
	c-18.279,0-33.149,14.871-33.149,33.149C410.787,120.951,425.658,135.821,443.936,135.821z"/>
<path style="fill:#EEEEEC;" d="M256.001,48.556c-96.229,0-200.437,30.994-239.711,127.426
	C-2.764,222.768-3.974,276.05,6.823,324.978c4.563,20.675,11.26,41.239,21.238,59.972c18.967,35.603,46.332,38.606,83.185,48.267
	c16.602,4.353,32.269,10.482,47.749,17.82c32.16,15.248,60.863,22.887,97.004,22.887s64.844-7.639,97.004-22.887
	c15.48-7.339,31.147-13.469,47.749-17.82c36.853-9.661,64.218-12.664,83.185-48.267c9.979-18.732,16.676-39.297,21.238-59.972
	c10.797-48.928,9.589-102.209-9.466-148.996C456.438,79.55,352.23,48.556,256.001,48.556z"/>
<path style="fill:#D4D3D3;" d="M69.27,407.323c-9.979-19.977-16.677-41.91-21.238-63.96c-10.797-52.183-9.589-109.008,9.465-158.905
	C94.026,88.799,186.73,53.523,276.94,49.059c-7.003-0.336-13.992-0.504-20.939-0.504c-96.229,0-200.437,30.994-239.711,127.426
	C-2.765,222.768-3.974,276.049,6.823,324.977c4.563,20.675,11.26,41.239,21.238,59.972c13.325,25.015,30.804,33.932,52.8,40.377
	C76.696,420.369,72.835,414.461,69.27,407.323z"/>
<g>
	<circle style="fill:#424342;" cx="162.882" cy="208.146" r="17.242"/>
	<circle style="fill:#424342;" cx="349.119" cy="208.146" r="17.242"/>
	<path style="fill:#424342;" d="M298.456,381.536c-15.237,0-28.204-9.869-32.871-23.546c36.979-4.717,58.736-35.633,45.641-44.799
		c-14.19-9.933-27.67,7.095-55.226,7.095s-41.036-17.027-55.226-7.095c-13.095,9.165,8.663,40.082,45.642,44.799
		c-4.667,13.678-17.634,23.546-32.871,23.546c-4.267,0-7.726,3.459-7.726,7.726c0,4.267,3.459,7.726,7.726,7.726
		c17.853,0,33.558-9.372,42.455-23.453c8.897,14.082,24.602,23.453,42.455,23.453c4.267,0,7.726-3.459,7.726-7.726
		C306.182,384.995,302.723,381.536,298.456,381.536z"/>
</g>
<g>
</g>
<g>
</g>
<g>
</g>
<g>
</g>
<g>
</g>
<g>
</g>
<g>
</g>
<g>
</g>
<g>
</g>
<g>
</g>
<g>
</g>
<g>
</g>
<g>
</g>
<g>
</g>
<g>
</g>
</svg>
